<?xml version="1.0" encoding="utf-8"?>
<!-- Generator: Adobe Illustrator 19.0.0, SVG Export Plug-In . SVG Version: 6.00 Build 0)  -->
<svg version="1.1" id="Layer_1" xmlns="http://www.w3.org/2000/svg" xmlns:xlink="http://www.w3.org/1999/xlink" x="0px" y="0px"
	 viewBox="-342 415 314 172" style="enable-background:new -342 415 314 172;" xml:space="preserve">
<style type="text/css">
	.st0{fill:#FFC800;}
	.st1{fill:#FFB300;}
	.st2{fill:#FFC924;}
	.st3{fill:#FFD024;}
	.st4{fill:#FFC000;}
	.st5{fill:#FB7C00;}
	.st6{fill:#FF00C6;}
	.st7{opacity:0.35;}
	.st8{fill:url(#XMLID_9_);}
	.st9{fill:url(#XMLID_10_);}
	.st10{fill:url(#XMLID_16_);}
	.st11{fill:url(#XMLID_18_);}
</style>
<g id="Layer_5">
</g>
<polygon id="XMLID_59_" class="st0" points="-171,542 -148.1,576 -138.9,578.4 -169.8,541.3 "/>
<path id="XMLID_60_" class="st0" d="M-226.1,574l5.5,4l24.9-34.6c0,0-0.7-0.9-0.8-1L-226.1,574z"/>
<polygon id="XMLID_64_" class="st1" points="-202.5,538.4 -231.1,553.9 -225.1,555.3 -202.5,538.5 "/>
<polygon id="XMLID_68_" class="st2" points="-198.9,574.8 -192.1,577 -186.2,542.8 -187.2,542.8 "/>
<polygon id="XMLID_71_" class="st3" points="-180.5,543.1 -173,585.5 -163.9,585.8 -178.4,543 "/>
<polygon id="XMLID_73_" class="st1" points="-162.4,539.8 -138.8,556.3 -132,554.1 -161.6,539.2 "/>
<path id="XMLID_5_" class="st0" d="M-163,479.5c-0.4,0.3-0.8,0.7-1.1,1c-0.1,0.1-0.2,0.2-0.3,0.3l-10.3,15.9h4.3l10-13.1
	C-161.5,482.7-162.4,481.3-163,479.5z"/>
<path id="XMLID_12_" class="st1" d="M-150.4,488c-0.6-0.2-1.3-0.4-1.9-0.6l-11.6,10.8c0.3,0.2,0.6,0.4,0.9,0.6l16.1-10.3
	C-148,488.5-149.2,488.3-150.4,488z"/>
<g id="XMLID_1_">
	<path id="XMLID_13_" class="st2" d="M-180.3,486.4c-0.4,0-0.8,0-1.1,0c0.2,0,0.4,0,0.7,0C-180.6,486.4-180.4,486.4-180.3,486.4z"/>
	<path id="XMLID_17_" class="st2" d="M-180.7,488.4c-1,0-2.1-0.1-3.2-0.3c-0.4-0.1-0.8-0.2-1.2-0.3l0.3,8.9h5.1l0.5-8.4
		C-179.7,488.4-180.2,488.4-180.7,488.4z"/>
</g>
<path id="XMLID_22_" class="st0" d="M-195.8,483.1c-1.2,0.3-2.3,1.1-3.4,2.3l5.8,11.5h3.6l-5.6-13.9
	C-195.6,483-195.7,483-195.8,483.1z"/>
<path id="XMLID_31_" class="st1" d="M-212.8,492l12,5.6c0.4-0.2,0.8-0.3,1.2-0.4l-8.9-5.9C-209.9,491.6-211.4,491.8-212.8,492z"/>
<path id="XMLID_29_" class="st4" d="M-162.1,506.8c0-4.4-3.6-8-8-8h-24c-4.4,0-8,3.6-8,8v24c0,4.4,3.6,8,8,8h24c4.4,0,8-3.6,8-8
	V506.8z M-176.1,527.8h-13v-17h13v3h-9v4h8v3h-8v4h9V527.8z"/>
<g id="XMLID_2_">
	<path id="XMLID_20_" class="st5" d="M-267.6,513.6c-3.1,0-5.5,2.5-5.5,5.5v0.1c0,3,2.3,5.5,5.4,5.5c0.9,0,1.7-0.2,2.4-0.5l-2.8-2.4
		l2.5-2.8l3,2.6c0.3-0.7,0.6-1.5,0.6-2.4v-0.1C-262.1,516.1-264.5,513.6-267.6,513.6z"/>
	<path id="XMLID_41_" class="st5" d="M-255.5,498.8h-13.7c-1,3-2.1,4.9-3.2,7c-2.6,4.7-4.8,8.4-7.3,11.5c-2.1,2.6-5.3,4.4-7.3,5.3
		v8.5c0,4.4,3.2,7.6,7.6,7.6h24c4.4,0,8.4-3.2,8.4-7.6v-24C-247.1,502.8-251.1,498.8-255.5,498.8z M-260.5,528.5l-1.9-1.7
		c-1.5,1-3.3,1.5-5.3,1.5c-5.4,0-9.4-4-9.4-9v-0.1c0-5,4.1-9.1,9.5-9.1s9.5,4,9.5,9v0.1c0,1.8-0.7,3.6-1.7,5l1.8,1.5L-260.5,528.5z"
		/>
</g>
<path id="XMLID_33_" class="st5" d="M-205.1,506.8c0-4.4-3.6-8-8-8h-24c-4.4,0-8,3.6-8,8v24c0,4.4,3.6,8,8,8h24c4.4,0,8-3.6,8-8
	V506.8z M-217.1,520.3c0,5.3-3.3,7.9-8,7.9s-8-2.6-8-7.8v-9.6h4v9.5c0,2.9,1.6,4.3,4,4.3s4-1.4,4-4.2v-9.6h4V520.3z"/>
<path id="XMLID_23_" class="st5" d="M-120.1,506.8c0-4.4-3.6-8-8-8h-24c-4.4,0-8,3.6-8,8v24c0,4.4,3.6,8,8,8h24c4.4,0,8-3.6,8-8
	V506.8z M-133.1,522.7c0,3.5-2.7,5.4-6.5,5.4c-2.7,0-5.4-0.9-7.5-2.8l2.3-2.7c1.6,1.3,3.2,2.1,5.2,2.1c1.6,0,2.5-0.6,2.5-1.7v-0.1
	c0-1-0.4-1.5-3.4-2.2c-3.5-0.9-5.6-1.9-5.6-5.4v-0.1c0-3.2,2.4-5.3,6-5.3c2.6,0,4.7,0.8,6.4,2.2l-2,2.9c-1.6-1.1-2.9-1.7-4.4-1.7
	s-2,0.7-2,1.5v0.1c0,1.2,0.6,1.5,3.6,2.3C-134.9,518.3-133.1,519.6-133.1,522.7L-133.1,522.7z"/>
<path id="XMLID_19_" class="st5" d="M-77.1,506.8c0-4.4-3.6-8-8-8h-24c-4.4,0-8,3.6-8,8v24c0,4.4,3.6,8,8,8h24c4.4,0,8-3.6,8-8
	V506.8z M-90.1,513.8h-6v14h-3v-14h-6v-3h15V513.8z"/>
<g id="XMLID_3_">
	<path id="XMLID_11_" class="st6" d="M-266.5,448.7c-1-7.3-2.6-14.5-5.7-21.4c-1.1-2.4-1.7-2.8-4.2-2.5c-4.9,0.6-9.4,2.6-13,5.9
		c-1,0.9-1.9,1.9-1.3,3.7c1.3,3.8,2.6,7.6,3.8,11.4c2.4,7.8,4.3,15.6,5.2,23.7c1,9,0,17.4-2.3,25.7c-0.1,0.5-0.5,1-0.8,1.4
		c-0.3-0.5-0.7-0.9-1-1.4c-0.1-0.1-0.1-0.2-0.1-0.3c-0.9-3.1-1.9-6.2-2.8-9.3c-2.4-7.4-4.8-14.8-7.3-22.2
		c-2.1-6.4-4.3-12.8-6.4-19.2c-0.5-1.6-1.2-2.5-2.7-2.6c-0.5,0-1-0.1-1.6,0c-4.1,0.5-7.8,2-10.8,5c-1.5,1.5-3.1,3.2-2.6,6
		c0,0.3-0.1,0.6-0.2,0.8c-1.4,2.1-2.4,4.5-4.1,6.2c-4,4.1-8.2,7.9-12.1,12c-3.2,3.4-5.3,7.3-5,13c0.4,6.4,4.7,11.9,9.9,13.1
		c3.8,0.9,7.3,0.7,10.2-1.6c0.5-0.4,1-0.9,1.3-1.3c1.7-1.9,2.4-3.6,2.7-6.3c0.1-1.2,0.2-1.8-0.1-3.1c-0.4-1.7-2.3-2.4-3.4-2.4
		c-1.9,0-3-1-3.7-3.3c-1-3.1-0.5-5.9,1.2-7.9c2.1-2.4,4.5-4.4,6.9-6.6c1.3-1.1,1.9-0.9,2.6,0.9c1.7,4,3.3,8,5,12
		c5.4,13.1,10.6,26.1,14.6,39.6c0.6,1.9,1.7,3.1,3.2,3.3c0.9,0.1,1.7,0.1,2.6-0.1c2.7-0.7,5.1-2.3,7.1-4.7c2.7-3.4,5.1-7.1,7.4-11.2
		c3.7-6.7,6-14.3,7.7-22.1c1.3-6.1,1.9-12.4,1.3-18.9C-265.7,458.9-265.8,453.8-266.5,448.7z"/>
	<path id="XMLID_14_" class="st6" d="M-247.1,443.4c4.7-2.7,6.7-6.8,6.3-12.4c-0.4-6.4-5.8-10.5-13.9-9c-4.3,0.9-7.3,4.3-8.5,9.1
		c-0.6,2.2-0.6,4.6,0.7,6.9C-259.9,443-253.7,447.2-247.1,443.4z"/>
	<path id="XMLID_15_" class="st6" d="M-173.5,437.3c7.1,0.5,12.9-2.1,14.1-9.9c0.5-4.9-2.8-10.5-7.9-11.6c-6-1.3-11.3,2-13.5,7.7
		C-182.9,429.2-178.7,436.9-173.5,437.3z"/>
	<path id="XMLID_28_" class="st6" d="M-57.9,474.9c-0.1-0.1-0.2-0.2-0.3-0.2c-0.9-0.6-1.8-0.7-2.8,0.3s-2,1.9-3.1,2.7
		c-2,1.4-4.1,2.8-6.2,4.1c-0.6,0.3-1.6,0.5-1.9,0.2c-0.4-0.3-0.5-1.3-0.3-2c0.5-1.8,1.1-3.7,2-5.5c2.4-4.8,5.1-9.5,7.6-14.3
		c1.5-2.8,0.7-7.6-2.3-9.1c-1.6-0.8-3.3-1.5-5.1-1.8c-3.9-0.7-8.2,0.6-12,2c-0.6,0.2-1.2,0.3-2.1,0.5c0.2-0.6,0.2-0.9,0.4-1.1
		c1-1.1,0.2-1.6-0.6-2.1c-0.2-0.1-0.5-0.2-0.8-0.3c-4.5-1.7-9.9-0.9-14.7-0.6c-1.6,0-3,0.6-3.9,2.3c-2.8,5.5-4.2,11-6.9,16.6
		c-0.5,1-0.9,2-1.5,2.8c-1.4,1.6-2.8,3.2-4.4,4.5c-1.4,1.1-3.2,1.8-4.8,2.6c-0.2,0.1-0.5-0.1-0.9-0.1c0.3-0.5,0.5-0.8,0.7-1.1
		c1.7-2.1,2.9-4.5,3.7-7.1c0.4-1.2,0.7-2.4,1-3.6c2.4-8.3-1.1-18.7-10-21.2c-5.6-1.6-11.4-1.4-17.1,0c-5,1.3-8.9,5.4-12.2,9.2
		c-2.6,2.9-3.8,7.9-5,11.5c-0.4,1.3-0.7,2.8-1.5,3.8c-1.9,2.4-4,4.7-6,6.9c-0.5,0.4-1,0.8-1.5,1.1c-1.3,0.8-2.5-0.1-2.5-1.6
		c0-0.8,0-1.7,0.2-2.4c0.8-2.4,1.6-4.8,2.6-7.2c2.3-5.8,0.6-9.4,3.4-15c1.1-2.3,2.3-6.5-0.3-7.5c-3-1-6.1-1.5-9.2-1.3
		c-2.6,0.1-5.1,0.3-7.6,0.7c-0.5,0.1-1.2,0.5-1.4,1c-2.4,6.5-1.4,15-3.4,21.7c-0.2,0.6-0.2,1.4-0.5,2c-1.4,3.1-3.6,5.5-6,7.7
		c-0.3,0.3-0.9,0.4-1.2,0.3c-0.2-0.1-0.4-0.8-0.5-1.2c-0.1-1.3-0.1-2.6-0.3-3.8c-0.9-4.4-1.7-8.9-2.9-13.3c-1-3.8-1.8-7.5-0.4-11.2
		c0.7-1.8-0.2-3.6-1.9-4.7c-1.2-0.7-2.5-1.4-3.8-1.5c-6.8-0.9-12.5,1.6-16.5,6.3c-3.8,4.5-6,10-8.2,15.5c-2.5,6.7-3.9,13.9-7.2,20
		c-0.5,0.8-0.8,1.8-1.4,2.4c-0.4,0.5-1.2,0.9-1.8,0.7c-0.5-0.1-1.2-1-1.4-1.7c-0.4-1.5-0.8-3-0.8-4.5c-0.2-4.1-0.1-8.1-0.1-12.2
		c0.1-4.9,0.2-9.6,0.4-14.5c0.1-1.6-0.1-2.1-1.8-2.3c-6.5-0.6-12.2,1.1-17.3,4.1c-0.4,0.3-0.7,1.1-0.7,1.7c0.1,4,0.4,8.1,0.6,12.1
		c0.4,7.4,1.6,14.8,3.5,22.1c1.6,6,5.3,9.6,10.1,9.1c2.3-0.2,4.5-1,6.5-2.1c4.1-2.4,7-6.5,9.1-11.5c1.6-3.8,2.7-7.8,4.1-11.8
		c1.7-5.1,3.4-10.2,5.5-15.1c0.6-1.5,1.6-2.8,2.5-4.2c0.7-1,1.5-0.8,1.9,0.4c0.4,0.9,0.7,1.9,1,2.8c1.3,3.9,2.5,7.8,3.7,11.7
		c0.4,1.3,0,2.3-0.7,3.3c-0.6,0.9-1,2.1-1.1,3.3c-0.1,1,0.2,2.1,0.3,3.2c0.2,1.3-0.4,1.5-1.3,1.3c-1.8-0.5-3.3-1.7-4.6-3.3
		c-1.2-1.6-2.2-1.8-3.8-1.1c-2.4,1.1-3.7,3.2-4.5,5.9c-0.6,2-0.1,3.4,1.4,4.9c1.8,1.9,3.8,3,5.8,3.8c5,1.9,9.6,1,14.2-0.4
		c2.8-0.9,5.4-2.2,7.7-4.6c1.3-1.4,2.7-2.4,4.4-2.8c0.5-0.1,0.9-0.3,1.3-0.6c1.5-1,3-2.1,4.5-3c1,5.4,3.2,8.1,6.9,8.7
		c4.9,0.8,9.4-0.5,13.7-3.5c1.9-1.3,3.7-3.1,5.5-4.7c0-0.1,0.1-0.2,0.1-0.4c0.4-0.3,0.8-0.5,1.1-0.8s0.6-0.7,0.9-1.1
		c0.4,0.9,0.7,1.7,0.9,2.5c0.7,2.2,1.9,4.1,3.8,5.1c2.1,1.1,4.4,2.1,6.7,2.7c6.1,1.5,12.1,0.5,18.2-1.7c2-0.7,3.8-2.2,6.1-2.2
		c3.4,0,6.8-0.2,10.2-2.7c-0.8,2.1-1.4,3.7-2,5.4c-0.7,1.8-0.6,2.2,1,3c0.2,0.1,0.4,0.2,0.6,0.3c4.5,1.4,9.1,1.8,13.9,0.5
		c0.7-0.2,1.6-0.9,1.8-1.5c3-8.2,7.3-15.8,11.3-23.6c0.8-1.5,1.9-2.7,3.7-3.1c1.2-0.3,2.5-0.5,3.4,0.4c0.8,1-0.1,2-0.6,3
		c-2.9,5.6-6.8,10.7-8.2,16.9c-0.8,3.5-0.2,8,2.6,9.9c2.5,1.7,5.4,1.8,8.5,1.5c8.7-0.9,16.3-6.3,22.8-13.5
		C-56.1,476.7-56.2,476.3-57.9,474.9z M-136.3,467.2c-0.3,0.8-1.1,1.7-1.9,2.1c-2.8,1.5-3.5,2.6-3.4,5.8c0,0.5-0.3,1.6-0.4,1.6
		c-1-0.1-2.1-0.1-3-0.6c-1-0.6-0.9-2-0.7-3.1c0.8-5.1,1.6-12,4.5-16.4c0.6-1,1.9-3,2.8-3.6c1.6-1,2.9,1,3.1,2.8
		c0.1,1,0.6,2.5,0.6,3.4C-134.5,459.2-135.5,465.1-136.3,467.2z"/>
</g>
<g id="XMLID_6_" class="st7">
	
		<linearGradient id="XMLID_9_" gradientUnits="userSpaceOnUse" x1="-303.119" y1="-270.2025" x2="-303.119" y2="-183.1969" gradientTransform="matrix(1 0 0 1 0 708)">
		<stop  offset="1.020000e-03" style="stop-color:#000000;stop-opacity:0"/>
		<stop  offset="1" style="stop-color:#000000"/>
	</linearGradient>
	<path id="XMLID_7_" class="st8" d="M-266.5,448.7c-1-7.3-2.6-14.5-5.7-21.4c-1.1-2.4-1.7-2.8-4.2-2.5c-4.9,0.6-9.4,2.6-13,5.9
		c-1,0.9-1.9,1.9-1.3,3.7c1.3,3.8,2.6,7.6,3.8,11.4c2.4,7.8,4.3,15.6,5.2,23.7c1,9,0,17.4-2.3,25.7c-0.1,0.5-0.5,1-0.8,1.4
		c-0.3-0.5-0.7-0.9-1-1.4c-0.1-0.1-0.1-0.2-0.1-0.3c-0.9-3.1-1.9-6.2-2.8-9.3c-2.4-7.4-4.8-14.8-7.3-22.2
		c-2.1-6.4-4.3-12.8-6.4-19.2c-0.5-1.6-1.2-2.5-2.7-2.6c-0.5,0-1-0.1-1.6,0c-4.1,0.5-7.8,2-10.8,5c-1.5,1.5-3.1,3.2-2.6,6
		c0,0.3-0.1,0.6-0.2,0.8c-1.4,2.1-2.4,4.5-4.1,6.2c-4,4.1-8.2,7.9-12.1,12c-3.2,3.4-5.3,7.3-5,13c0.4,6.4,4.7,11.9,9.9,13.1
		c3.8,0.9,7.3,0.7,10.2-1.6c0.5-0.4,1-0.9,1.3-1.3c1.7-1.9,2.4-3.6,2.7-6.3c0.1-1.2,0.2-1.8-0.1-3.1c-0.4-1.7-2.3-2.4-3.4-2.4
		c-1.9,0-3-1-3.7-3.3c-1-3.1-0.5-5.9,1.2-7.9c2.1-2.4,4.5-4.4,6.9-6.6c1.3-1.1,1.9-0.9,2.6,0.9c1.7,4,3.3,8,5,12
		c5.4,13.1,10.6,26.1,14.6,39.6c0.6,1.9,1.7,3.1,3.2,3.3c0.9,0.1,1.7,0.1,2.6-0.1c2.7-0.7,5.1-2.3,7.1-4.7c2.7-3.4,5.1-7.1,7.4-11.2
		c3.7-6.7,6-14.3,7.7-22.1c1.3-6.1,1.9-12.4,1.3-18.9C-265.7,458.9-265.8,453.8-266.5,448.7z"/>
	
		<linearGradient id="XMLID_10_" gradientUnits="userSpaceOnUse" x1="-252.1403" y1="-270.2025" x2="-252.1403" y2="-183.1967" gradientTransform="matrix(1 0 0 1 0 708)">
		<stop  offset="1.020000e-03" style="stop-color:#000000;stop-opacity:0"/>
		<stop  offset="1" style="stop-color:#000000"/>
	</linearGradient>
	<path id="XMLID_34_" class="st9" d="M-247.1,443.4c4.7-2.7,6.7-6.8,6.3-12.4c-0.4-6.4-5.8-10.5-13.9-9c-4.3,0.9-7.3,4.3-8.5,9.1
		c-0.6,2.2-0.6,4.6,0.7,6.9C-259.9,443-253.7,447.2-247.1,443.4z"/>
	
		<linearGradient id="XMLID_16_" gradientUnits="userSpaceOnUse" x1="-170.3228" y1="-272.2529" x2="-170.3228" y2="-185.2471" gradientTransform="matrix(1 0 0 1 0 708)">
		<stop  offset="1.020000e-03" style="stop-color:#000000;stop-opacity:0"/>
		<stop  offset="1" style="stop-color:#000000"/>
	</linearGradient>
	<path id="XMLID_36_" class="st10" d="M-173.5,437.3c7.1,0.5,12.9-2.1,14.1-9.9c0.5-4.9-2.8-10.5-7.9-11.6c-6-1.3-11.3,2-13.5,7.7
		C-182.9,429.2-178.7,436.9-173.5,437.3z"/>
	
		<linearGradient id="XMLID_18_" gradientUnits="userSpaceOnUse" x1="-159.6585" y1="-270.2025" x2="-159.6585" y2="-183.1967" gradientTransform="matrix(1 0 0 1 0 708)">
		<stop  offset="1.020000e-03" style="stop-color:#000000;stop-opacity:0"/>
		<stop  offset="1" style="stop-color:#000000"/>
	</linearGradient>
	<path id="XMLID_72_" class="st11" d="M-57.9,474.9c-0.1-0.1-0.2-0.2-0.3-0.2c-0.9-0.6-1.8-0.7-2.8,0.3s-2,1.9-3.1,2.7
		c-2,1.4-4.1,2.8-6.2,4.1c-0.6,0.3-1.6,0.5-1.9,0.2c-0.4-0.3-0.5-1.3-0.3-2c0.5-1.8,1.1-3.7,2-5.5c2.4-4.8,5.1-9.5,7.6-14.3
		c1.5-2.8,0.7-7.6-2.3-9.1c-1.6-0.8-3.3-1.5-5.1-1.8c-3.9-0.7-8.2,0.6-12,2c-0.6,0.2-1.2,0.3-2.1,0.5c0.2-0.6,0.2-0.9,0.4-1.1
		c1-1.1,0.2-1.6-0.6-2.1c-0.2-0.1-0.5-0.2-0.8-0.3c-4.5-1.7-9.9-0.9-14.7-0.6c-1.6,0-3,0.6-3.9,2.3c-2.8,5.5-4.2,11-6.9,16.6
		c-0.5,1-0.9,2-1.5,2.8c-1.4,1.6-2.8,3.2-4.4,4.5c-1.4,1.1-3.2,1.8-4.8,2.6c-0.2,0.1-0.5-0.1-0.9-0.1c0.3-0.5,0.5-0.8,0.7-1.1
		c1.7-2.1,2.9-4.5,3.7-7.1c0.4-1.2,0.7-2.4,1-3.6c2.4-8.3-1.1-18.7-10-21.2c-5.6-1.6-11.4-1.4-17.1,0c-5,1.3-8.9,5.4-12.2,9.2
		c-2.6,2.9-3.8,7.9-5,11.5c-0.4,1.3-0.7,2.8-1.5,3.8c-1.9,2.4-4,4.7-6,6.9c-0.5,0.4-1,0.8-1.5,1.1c-1.3,0.8-2.5-0.1-2.5-1.6
		c0-0.8,0-1.7,0.2-2.4c0.8-2.4,1.6-4.8,2.6-7.2c2.3-5.8,1.9-13.4,4.8-19.1c1.1-2.3,1-2.5-1.6-3.4c-3-1-6.1-1.5-9.2-1.3
		c-2.6,0.1-5.1,0.3-7.6,0.7c-0.5,0.1-1.2,0.5-1.4,1c-2.4,6.5-1.4,15-3.4,21.7c-0.2,0.6-0.2,1.4-0.5,2c-1.4,3.1-3.6,5.5-6,7.7
		c-0.3,0.3-0.9,0.4-1.2,0.3c-0.2-0.1-0.4-0.8-0.5-1.2c-0.1-1.3-0.1-2.6-0.3-3.8c-0.9-4.4-1.7-8.9-2.9-13.3c-1-3.8-1.8-7.5-0.4-11.2
		c0.7-1.8-0.2-3.6-1.9-4.7c-1.2-0.7-2.5-1.4-3.8-1.5c-6.8-0.9-12.5,1.6-16.5,6.3c-3.8,4.5-6,10-8.2,15.5c-2.5,6.7-3.9,13.9-7.2,20
		c-0.5,0.8-0.8,1.8-1.4,2.4c-0.4,0.5-1.2,0.9-1.8,0.7c-0.5-0.1-1.2-1-1.4-1.7c-0.4-1.5-0.8-3-0.8-4.5c-0.2-4.1-0.1-8.1-0.1-12.2
		c0.1-4.9,0.2-9.6,0.4-14.5c0.1-1.6-0.1-2.1-1.8-2.3c-6.5-0.6-12.2,1.1-17.3,4.1c-0.4,0.3-0.7,1.1-0.7,1.7c0.1,4,0.4,8.1,0.6,12.1
		c0.4,7.4,1.6,14.8,3.5,22.1c1.6,6,5.3,9.6,10.1,9.1c2.3-0.2,4.5-1,6.5-2.1c4.1-2.4,7-6.5,9.1-11.5c1.6-3.8,2.7-7.8,4.1-11.8
		c1.7-5.1,3.4-10.2,5.5-15.1c0.6-1.5,1.6-2.8,2.5-4.2c0.7-1,1.5-0.8,1.9,0.4c0.4,0.9,0.7,1.9,1,2.8c1.3,3.9,2.5,7.8,3.7,11.7
		c0.4,1.3,0,2.3-0.7,3.3c-0.6,0.9-1,2.1-1.1,3.3c-0.1,1,0.2,2.1,0.3,3.2c0.2,1.3-0.4,1.5-1.3,1.3c-1.8-0.5-3.3-1.7-4.6-3.3
		c-1.2-1.6-2.2-1.8-3.8-1.1c-2.4,1.1-3.7,3.2-4.5,5.9c-0.6,2-0.1,3.4,1.4,4.9c1.8,1.9,3.8,3,5.8,3.8c5,1.9,9.6,1,14.2-0.4
		c2.8-0.9,5.4-2.2,7.7-4.6c1.3-1.4,2.7-2.4,4.4-2.8c0.5-0.1,0.9-0.3,1.3-0.6c1.5-1,3-2.1,4.5-3c1,5.4,3.2,8.1,6.9,8.7
		c4.9,0.8,9.4-0.5,13.7-3.5c1.9-1.3,3.7-3.1,5.5-4.7c0-0.1,0.1-0.2,0.1-0.4c0.4-0.3,0.8-0.5,1.1-0.8s0.6-0.7,0.9-1.1
		c0.4,0.9,0.7,1.7,0.9,2.5c0.7,2.2,1.9,4.1,3.8,5.1c2.1,1.1,4.4,2.1,6.7,2.7c6.1,1.5,12.1,0.5,18.2-1.7c2-0.7,3.8-2.2,6.1-2.2
		c3.4,0,6.8-0.2,10.2-2.7c-0.8,2.1-1.4,3.7-2,5.4c-0.7,1.8-0.6,2.2,1,3c0.2,0.1,0.4,0.2,0.6,0.3c4.5,1.4,9.1,1.8,13.9,0.5
		c0.7-0.2,1.6-0.9,1.8-1.5c3-8.2,7.3-15.8,11.3-23.6c0.8-1.5,1.9-2.7,3.7-3.1c1.2-0.3,2.5-0.5,3.4,0.4c0.8,1-0.1,2-0.6,3
		c-2.9,5.6-6.8,10.7-8.2,16.9c-0.8,3.5-0.2,8,2.6,9.9c2.5,1.7,5.4,1.8,8.5,1.5c8.7-0.9,16.3-6.3,22.8-13.5
		C-56.1,476.7-56.2,476.3-57.9,474.9z M-136.3,467.2c-0.3,0.8-1.1,1.7-1.9,2.1c-2.8,1.5-3.5,2.6-3.4,5.8c0,0.5-0.3,1.6-0.4,1.6
		c-1-0.1-2.1-0.1-3-0.6c-1-0.6-0.9-2-0.7-3.1c0.8-5.1,1.6-12,4.5-16.4c0.6-1,1.9-3,2.8-3.6c1.6-1,2.9,1,3.1,2.8
		c0.1,1,0.8,3.5,0.9,3.5C-134.9,461.4-135.5,465.1-136.3,467.2z"/>
</g>
<g id="XMLID_4_">
</g>
<g id="XMLID_35_">
</g>
<g id="XMLID_38_">
</g>
<g id="XMLID_40_">
</g>
<g id="XMLID_42_">
</g>
<g id="XMLID_43_">
</g>
</svg>
